<svg width="694" height="694" viewBox="0 0 694 694" fill="none" xmlns="http://www.w3.org/2000/svg">
<circle cx="347" cy="354" r="336" fill="#F4ECD6"/>
<path fill-rule="evenodd" clip-rule="evenodd" d="M347 628C498.326 628 621 505.326 621 354C621 202.674 498.326 80 347 80C195.674 80 73 202.674 73 354C73 505.326 195.674 628 347 628ZM347 640C504.953 640 633 511.953 633 354C633 196.047 504.953 68 347 68C189.047 68 61 196.047 61 354C61 511.953 189.047 640 347 640Z" fill="#262A4F"/>
<path fill-rule="evenodd" clip-rule="evenodd" d="M347 672C522.627 672 665 529.627 665 354C665 178.373 522.627 36 347 36C171.373 36 29 178.373 29 354C29 529.627 171.373 672 347 672ZM347 690C532.568 690 683 539.568 683 354C683 168.432 532.568 18 347 18C161.432 18 11 168.432 11 354C11 539.568 161.432 690 347 690Z" fill="#262A4F"/>
<path d="M161 295.792C166 284.292 187.7 254.792 198.5 254.792C212 254.792 253 304.792 254 317.792C270.5 305.292 340 245.791 390.5 145.292C410.5 127.292 446.5 219.792 383.5 266.792C384.333 270.625 387.8 278.191 395 277.792C405 275.792 462.92 220.226 470.5 173.292C472.5 164.458 479.8 153.592 493 180.792C547.5 282.792 483 425.292 402 424.292C347 423.612 321 403.792 306.5 397.792C292 391.792 276.3 398.592 287.5 421.792C303.167 449.458 341.5 505.992 369.5 510.792C380.5 515.292 325.5 540.292 306.5 540.292C273.5 542.292 252 509.492 252 476.292C252.833 465.292 249 447.292 236.5 443.792C204 434.691 190.5 390.791 190.5 354.292C190.5 343.292 210 312.292 210 312.292C197.5 299.292 180.5 277.792 161 295.792Z" fill="#F8F8F5"/>
<path d="M161 295.792L157.332 294.197C156.578 295.931 157.141 297.957 158.683 299.052C160.225 300.148 162.323 300.014 163.713 298.731L161 295.792ZM254 317.792L250.012 318.098C250.124 319.557 251.024 320.839 252.359 321.439C253.693 322.04 255.249 321.864 256.415 320.98L254 317.792ZM390.5 145.292L387.824 142.318C387.454 142.651 387.149 143.051 386.926 143.496L390.5 145.292ZM306.5 312.292L308.459 315.779L306.5 312.292ZM395 277.792L395.222 281.785C395.411 281.775 395.599 281.751 395.785 281.714L395 277.792ZM470.5 173.292L466.599 172.408C466.58 172.49 466.564 172.571 466.551 172.654L470.5 173.292ZM493 180.792L489.401 182.538C489.424 182.585 489.448 182.631 489.472 182.677L493 180.792ZM402 424.292L401.951 428.291L402 424.292ZM287.5 421.792L283.898 423.53C283.936 423.609 283.976 423.687 284.019 423.762L287.5 421.792ZM369.5 510.792L371.015 507.089C370.745 506.979 370.463 506.898 370.176 506.849L369.5 510.792ZM306.5 540.292V536.292C306.419 536.292 306.339 536.294 306.258 536.299L306.5 540.292ZM252 476.292L248.011 475.989C248.004 476.09 248 476.191 248 476.292H252ZM236.5 443.792L235.421 447.643L236.5 443.792ZM210 312.292L213.386 314.421L215.051 311.774L212.883 309.519L210 312.292ZM164.668 297.386C166.955 292.127 173.366 282.212 180.638 273.551C184.251 269.249 187.948 265.412 191.307 262.687C192.986 261.325 194.498 260.31 195.801 259.65C197.137 258.973 198.016 258.792 198.5 258.792V250.792C196.284 250.792 194.122 251.532 192.185 252.513C190.215 253.512 188.22 254.891 186.268 256.474C182.364 259.64 178.299 263.896 174.512 268.407C166.984 277.372 160.045 287.956 157.332 294.197L164.668 297.386ZM198.5 258.792C199.114 258.792 200.48 259.138 202.722 260.431C204.851 261.659 207.36 263.497 210.137 265.856C215.68 270.564 221.95 277.052 227.896 284.014C233.835 290.969 239.362 298.293 243.442 304.629C245.483 307.8 247.124 310.665 248.27 313.072C249.464 315.579 249.945 317.235 250.012 318.098L257.988 317.485C257.805 315.098 256.786 312.347 255.493 309.633C254.153 306.817 252.321 303.643 250.168 300.298C245.857 293.602 240.103 285.989 233.979 278.819C227.862 271.656 221.289 264.831 215.316 259.759C212.335 257.226 209.418 255.057 206.718 253.5C204.129 252.007 201.261 250.792 198.5 250.792V258.792ZM256.415 320.98C273.254 308.224 343.226 248.28 394.074 147.088L386.926 143.496C336.774 243.303 267.746 302.359 251.585 314.603L256.415 320.98ZM393.176 148.265C394.657 146.932 395.929 146.78 397.293 147.222C398.969 147.765 401.155 149.37 403.514 152.487C408.184 158.658 412.411 169.287 414.161 182.204C417.648 207.937 411.136 241.184 381.108 263.585L385.892 269.998C418.864 245.399 425.852 208.896 422.089 181.13C420.214 167.296 415.629 155.238 409.893 147.659C407.048 143.9 403.632 140.865 399.757 139.611C395.571 138.256 391.343 139.152 387.824 142.318L393.176 148.265ZM381.4 263.387C361.441 275.696 320.988 299.567 304.541 308.804L308.459 315.779C325.012 306.482 365.56 282.554 385.6 270.196L381.4 263.387ZM304.541 308.804C298.37 312.271 288.73 318.089 279.798 324.324C275.332 327.441 270.993 330.698 267.334 333.845C263.736 336.939 260.554 340.131 258.631 343.135L265.369 347.448C266.646 345.452 269.106 342.873 272.55 339.91C275.934 337 280.038 333.913 284.377 330.884C293.053 324.828 302.464 319.146 308.459 315.779L304.541 308.804ZM379.591 267.641C380.108 270.017 381.402 273.478 383.748 276.389C386.158 279.378 389.96 282.078 395.222 281.785L394.778 273.798C392.84 273.905 391.309 273.021 389.977 271.369C388.582 269.638 387.726 267.399 387.409 265.942L379.591 267.641ZM395.785 281.714C396.993 281.472 398.219 280.916 399.318 280.321C400.474 279.695 401.751 278.879 403.11 277.921C405.83 276.002 409.067 273.378 412.617 270.2C419.726 263.839 428.275 255.097 436.73 244.953C453.522 224.807 470.482 198.494 474.449 173.929L466.551 172.654C462.938 195.024 447.148 219.96 430.585 239.831C422.363 249.695 414.083 258.153 407.282 264.239C403.878 267.286 400.889 269.697 398.499 271.383C397.302 272.227 396.302 272.857 395.508 273.287C395.113 273.501 394.798 273.65 394.558 273.748C394.308 273.85 394.203 273.872 394.216 273.869L395.785 281.714ZM474.401 174.175C474.838 172.245 475.531 170.386 476.375 169.064C477.264 167.671 477.879 167.517 477.999 167.504C478.071 167.496 479.128 167.408 481.317 169.678C483.467 171.909 486.181 175.901 489.401 182.538L496.599 179.045C493.219 172.082 490.07 167.232 487.077 164.126C484.122 161.061 480.753 159.142 477.101 159.554C473.496 159.962 471.086 162.481 469.631 164.76C468.131 167.11 467.162 169.921 466.599 172.408L474.401 174.175ZM489.472 182.677C516.055 232.428 513.692 292.285 494.602 339.672C475.406 387.322 440.084 420.761 402.049 420.292L401.951 428.291C444.916 428.822 482.344 391.511 502.023 342.661C521.808 293.548 524.445 231.155 496.528 178.906L489.472 182.677ZM402.049 420.292C348.064 419.625 323.21 400.377 308.029 394.095L304.971 401.488C318.79 407.206 345.936 427.6 401.951 428.291L402.049 420.292ZM308.029 394.095C300.127 390.826 290.699 390.532 284.707 395.85C278.3 401.537 278.05 411.417 283.898 423.53L291.102 420.053C285.75 408.966 287.75 403.846 290.018 401.833C292.701 399.451 298.373 398.757 304.971 401.488L308.029 394.095ZM284.019 423.762C291.938 437.746 305.567 459.001 320.792 477.415C328.404 486.621 336.491 495.21 344.535 501.838C352.502 508.403 360.801 513.359 368.824 514.734L370.176 506.849C364.2 505.824 357.207 501.914 349.622 495.664C342.113 489.477 334.388 481.304 326.958 472.318C312.1 454.348 298.729 433.503 290.981 419.821L284.019 423.762ZM367.986 514.494C368.179 514.573 367.568 514.384 367.176 513.528C366.746 512.588 367.025 511.84 367.067 511.746C367.09 511.694 366.992 511.916 366.513 512.415C366.065 512.882 365.417 513.453 364.544 514.118C360.99 516.826 354.868 520.228 347.573 523.598C340.337 526.939 332.183 530.142 324.703 532.5C317.11 534.895 310.602 536.292 306.5 536.292V544.292C311.898 544.292 319.391 542.564 327.109 540.13C334.942 537.66 343.413 534.331 350.927 530.86C358.382 527.417 365.135 523.725 369.393 520.481C371.373 518.973 373.457 517.095 374.394 514.957C374.924 513.748 375.275 512.002 374.452 510.201C373.667 508.485 372.196 507.573 371.015 507.089L367.986 514.494ZM306.258 536.299C291.297 537.206 278.862 530.282 270.021 519.021C261.128 507.694 256 492.086 256 476.292H248C248 493.697 253.622 511.089 263.729 523.962C273.888 536.901 288.703 545.377 306.742 544.284L306.258 536.299ZM255.989 476.594C256.444 470.576 255.638 462.726 252.986 455.799C250.355 448.928 245.572 442.178 237.579 439.94L235.421 447.643C239.928 448.905 243.312 452.905 245.514 458.659C247.696 464.357 248.389 471.007 248.011 475.989L255.989 476.594ZM237.579 439.94C222.909 435.832 212.138 423.769 204.966 407.687C197.805 391.634 194.5 372.113 194.5 354.292H186.5C186.5 372.97 189.945 393.649 197.659 410.946C205.362 428.214 217.591 442.651 235.421 447.643L237.579 439.94ZM194.5 354.292C194.5 352.405 195.422 349.053 197.247 344.607C199.003 340.331 201.371 335.557 203.778 331.051C206.179 326.558 208.584 322.394 210.392 319.35C211.295 317.829 212.047 316.592 212.572 315.737C212.834 315.309 213.039 314.978 213.178 314.754C213.248 314.643 213.3 314.558 213.335 314.502C213.353 314.474 213.366 314.453 213.374 314.44C213.379 314.433 213.382 314.428 213.384 314.425C213.385 314.423 213.385 314.422 213.386 314.422C213.386 314.421 213.386 314.421 213.386 314.421C213.386 314.421 213.386 314.421 210 312.292C206.614 310.162 206.614 310.162 206.614 310.163C206.613 310.163 206.613 310.164 206.613 310.164C206.612 310.165 206.611 310.167 206.609 310.169C206.606 310.174 206.602 310.18 206.597 310.189C206.587 310.205 206.572 310.229 206.553 310.26C206.514 310.322 206.457 310.412 206.384 310.53C206.237 310.767 206.024 311.112 205.753 311.553C205.211 312.437 204.439 313.707 203.514 315.265C201.666 318.377 199.196 322.65 196.722 327.282C194.254 331.901 191.747 336.94 189.847 341.569C188.015 346.03 186.5 350.678 186.5 354.292H194.5ZM212.883 309.519C206.932 303.329 199.011 294.068 190.121 288.95C185.553 286.32 180.416 284.573 174.85 284.957C169.232 285.345 163.688 287.867 158.287 292.852L163.713 298.731C168.062 294.716 171.955 293.176 175.4 292.938C178.897 292.697 182.447 293.763 186.129 295.883C193.739 300.265 200.568 308.254 207.117 315.064L212.883 309.519Z" fill="#F8F8F5"/>
<path d="M174 323L168.498 320.608C167.366 323.21 168.212 326.248 170.525 327.891C172.837 329.534 175.985 329.333 178.07 327.409L174 323ZM267 345L261.018 345.46C261.186 347.649 262.536 349.571 264.538 350.472C266.54 351.372 268.873 351.108 270.623 349.783L267 345ZM403.5 172.5L399.486 168.04C398.931 168.54 398.474 169.139 398.139 169.806L403.5 172.5ZM319.5 339.5L322.438 344.732L319.5 339.5ZM408 305L408.333 310.991C408.616 310.975 408.898 310.939 409.177 310.883L408 305ZM483.5 200.5L477.648 199.175C477.62 199.297 477.597 199.42 477.577 199.543L483.5 200.5ZM506 208L500.602 210.62C500.636 210.69 500.671 210.759 500.708 210.828L506 208ZM415 451.5L414.926 457.5L415 451.5ZM300.5 449L295.097 451.608C295.154 451.726 295.214 451.842 295.279 451.956L300.5 449ZM382.5 538L384.772 532.447C384.367 532.281 383.945 532.16 383.514 532.086L382.5 538ZM319.5 567.5V561.5C319.379 561.5 319.258 561.504 319.137 561.511L319.5 567.5ZM265 503.5L259.017 503.047C259.006 503.198 259 503.349 259 503.5H265ZM249.5 471L247.882 476.778L249.5 471ZM223 339.5L228.079 342.695L230.577 338.723L227.325 335.341L223 339.5ZM179.502 325.392C181.682 320.379 187.962 310.63 195.17 302.046C198.739 297.796 202.344 294.063 205.567 291.449C207.178 290.143 208.568 289.218 209.704 288.643C210.263 288.359 210.703 288.19 211.028 288.096C211.354 288.001 211.501 288 211.5 288V276C208.851 276 206.369 276.88 204.282 277.938C202.144 279.02 200.028 280.49 198.008 282.129C193.968 285.406 189.811 289.767 185.98 294.329C178.388 303.37 171.318 314.121 168.498 320.608L179.502 325.392ZM211.5 288C211.454 288 211.705 287.998 212.332 288.22C212.939 288.435 213.735 288.802 214.723 289.372C216.71 290.517 219.117 292.274 221.842 294.589C227.278 299.206 233.472 305.609 239.375 312.521C245.268 319.422 250.739 326.675 254.76 332.92C256.774 336.048 258.367 338.835 259.464 341.14C260.634 343.596 260.981 344.978 261.018 345.46L272.982 344.54C272.769 341.773 271.616 338.748 270.299 335.982C268.91 333.064 267.031 329.812 264.849 326.424C260.48 319.638 254.669 311.953 248.5 304.729C242.341 297.516 235.691 290.607 229.611 285.443C226.578 282.867 223.56 280.615 220.717 278.976C218.041 277.433 214.797 276 211.5 276V288ZM270.623 349.783C287.63 336.898 357.839 276.733 408.861 175.194L398.139 169.806C348.161 269.267 279.37 328.102 263.377 340.218L270.623 349.783ZM407.514 176.96C408.486 176.085 409.018 176.12 409.678 176.333C410.804 176.698 412.682 177.946 414.919 180.902C419.323 186.721 423.46 196.994 425.179 209.681C428.598 234.906 422.204 267.338 392.912 289.191L400.088 298.809C433.796 273.662 440.902 236.344 437.071 208.069C435.165 194.007 430.49 181.591 424.487 173.661C421.521 169.742 417.798 166.349 413.373 164.917C408.482 163.333 403.514 164.415 399.486 168.04L407.514 176.96ZM393.351 288.893C373.411 301.189 332.982 325.047 316.562 334.269L322.438 344.732C339.019 335.42 379.589 311.477 399.649 299.107L393.351 288.893ZM316.562 334.269C310.346 337.76 300.65 343.613 291.653 349.893C287.156 353.032 282.758 356.331 279.03 359.537C275.394 362.664 272.03 366.009 269.946 369.266L280.054 375.734C281.17 373.991 283.448 371.565 286.855 368.635C290.169 365.784 294.215 362.739 298.522 359.732C307.134 353.721 316.487 348.074 322.438 344.732L316.562 334.269ZM390.637 295.275C391.203 297.88 392.607 301.647 395.191 304.853C397.87 308.176 402.239 311.329 408.333 310.991L407.667 299.009C406.561 299.071 405.597 298.641 404.534 297.322C403.377 295.886 402.63 293.953 402.363 292.725L390.637 295.275ZM409.177 310.883C410.676 310.584 412.109 309.917 413.27 309.288C414.518 308.613 415.863 307.751 417.263 306.764C420.066 304.787 423.364 302.109 426.951 298.899C434.137 292.468 442.753 283.656 451.266 273.442C468.116 253.227 485.367 226.57 489.423 201.457L477.577 199.543C474.053 221.365 458.554 245.957 442.049 265.759C433.885 275.553 425.672 283.94 418.949 289.957C415.581 292.971 412.654 295.33 410.346 296.957C409.19 297.773 408.258 298.356 407.555 298.737C406.765 299.164 406.574 299.166 406.823 299.117L409.177 310.883ZM489.352 201.825C489.757 200.034 490.381 198.413 491.061 197.349C491.808 196.177 491.975 196.615 491.224 196.7C490.401 196.792 490.88 196.203 492.877 198.275C494.816 200.287 497.421 204.065 500.602 210.62L511.398 205.38C507.979 198.335 504.721 193.272 501.517 189.947C498.37 186.682 494.424 184.262 489.876 184.775C485.4 185.281 482.542 188.391 480.946 190.892C479.281 193.499 478.243 196.549 477.648 199.175L489.352 201.825ZM500.708 210.828C526.957 259.955 524.663 319.178 505.747 366.133C486.672 413.484 451.876 445.955 415.074 445.5L414.926 457.5C459.124 458.045 497.078 419.766 516.878 370.617C536.837 321.072 539.542 258.045 511.292 205.172L500.708 210.828ZM415.074 445.5C361.595 444.84 337.315 425.878 321.794 419.456L317.206 430.544C330.685 436.122 358.405 456.802 414.926 457.5L415.074 445.5ZM321.794 419.456C313.566 416.051 303.198 415.51 296.38 421.563C288.937 428.169 289.125 439.239 295.097 451.608L305.903 446.392C300.675 435.561 303.113 431.631 304.345 430.537C306.202 428.89 310.934 427.949 317.206 430.544L321.794 419.456ZM295.279 451.956C303.24 466.016 316.933 487.373 332.251 505.898C339.908 515.158 348.085 523.852 356.263 530.59C364.325 537.233 372.951 542.451 381.486 543.914L383.514 532.086C378.049 531.15 371.383 527.5 363.894 521.329C356.519 515.252 348.884 507.183 341.499 498.252C326.733 480.394 313.427 459.651 305.721 446.044L295.279 451.956ZM380.228 543.553C380.174 543.531 379.043 543.067 378.357 541.568C377.614 539.943 378.051 538.572 378.235 538.151C378.42 537.729 378.246 538.277 376.332 539.735C372.953 542.31 366.99 545.639 359.734 548.99C352.568 552.3 344.493 555.471 337.102 557.801C329.539 560.186 323.277 561.5 319.5 561.5V573.5C325.223 573.5 332.961 571.689 340.711 569.246C348.632 566.748 357.182 563.387 364.766 559.885C372.26 556.423 379.172 552.659 383.605 549.28C385.598 547.762 388.064 545.618 389.226 542.968C389.898 541.433 390.407 539.063 389.271 536.578C388.192 534.218 386.201 533.031 384.772 532.447L380.228 543.553ZM319.137 561.511C304.945 562.371 293.106 555.836 284.594 544.995C276.004 534.054 271 518.892 271 503.5H259C259 521.308 264.746 539.146 275.156 552.405C285.644 565.764 301.055 574.629 319.863 573.489L319.137 561.511ZM270.983 503.953C271.458 497.677 270.623 489.527 267.853 482.292C265.116 475.142 259.984 467.705 251.118 465.222L247.882 476.778C251.516 477.795 254.551 481.108 256.647 486.583C258.71 491.973 259.375 498.323 259.017 503.047L270.983 503.953ZM251.118 465.222C237.239 461.336 226.833 449.866 219.792 434.081C212.771 418.338 209.5 399.107 209.5 381.5H197.5C197.5 400.393 200.979 421.362 208.833 438.969C216.667 456.534 229.261 471.564 247.882 476.778L251.118 465.222ZM209.5 381.5C209.5 380.045 210.274 377.018 212.097 372.576C213.817 368.387 216.15 363.68 218.542 359.202C220.924 354.743 223.314 350.607 225.112 347.579C226.009 346.068 226.756 344.839 227.276 343.991C227.536 343.567 227.74 343.239 227.877 343.019C227.945 342.909 227.997 342.825 228.031 342.771C228.048 342.744 228.061 342.724 228.069 342.711C228.073 342.704 228.076 342.7 228.077 342.697C228.078 342.696 228.079 342.695 228.079 342.695C228.079 342.694 228.079 342.694 228.079 342.694C228.079 342.694 228.079 342.695 223 339.5C217.921 336.305 217.921 336.306 217.921 336.306C217.92 336.307 217.92 336.308 217.919 336.308C217.918 336.31 217.917 336.312 217.916 336.314C217.913 336.319 217.908 336.326 217.903 336.334C217.892 336.351 217.877 336.376 217.857 336.408C217.817 336.471 217.76 336.563 217.685 336.683C217.537 336.922 217.321 337.271 217.048 337.716C216.502 338.606 215.725 339.885 214.794 341.452C212.936 344.581 210.451 348.882 207.958 353.548C205.475 358.195 202.933 363.3 200.996 368.018C199.164 372.482 197.5 377.455 197.5 381.5H209.5ZM227.325 335.341C221.523 329.307 213.329 319.728 204.119 314.425C199.33 311.668 193.795 309.751 187.712 310.171C181.552 310.595 175.594 313.363 169.93 318.591L178.07 327.409C182.156 323.637 185.636 322.342 188.538 322.142C191.517 321.937 194.67 322.832 198.131 324.825C205.421 329.022 211.977 336.693 218.675 343.659L227.325 335.341Z" fill="#262A4F"/>
</svg>
