<svg width="694" height="694" viewBox="0 0 694 694" fill="none" xmlns="http://www.w3.org/2000/svg">
<circle cx="347" cy="354" r="336" fill="#F4ECD6"/>
<path fill-rule="evenodd" clip-rule="evenodd" d="M347 628C498.326 628 621 505.326 621 354C621 202.674 498.326 80 347 80C195.674 80 73 202.674 73 354C73 505.326 195.674 628 347 628ZM347 640C504.953 640 633 511.953 633 354C633 196.047 504.953 68 347 68C189.047 68 61 196.047 61 354C61 511.953 189.047 640 347 640Z" fill="#262A4F"/>
<path fill-rule="evenodd" clip-rule="evenodd" d="M347 672C522.627 672 665 529.627 665 354C665 178.373 522.627 36 347 36C171.373 36 29 178.373 29 354C29 529.627 171.373 672 347 672ZM347 690C532.568 690 683 539.568 683 354C683 168.432 532.568 18 347 18C161.432 18 11 168.432 11 354C11 539.568 161.432 690 347 690Z" fill="#262A4F"/>
<path d="M270.5 518.5L267.5 444.5C247.667 434.5 208 399.3 208 338.5C208 262.5 262.5 225 316 225C369.5 225 452 248.5 449.5 327C449.5 356 444.5 368.5 435 368.5C427.4 368.5 525.833 371.5 576 373C593.5 373 593.2 398.4 576 400L440.5 414.5V456C440.5 461.5 410.2 461.5 397 461.5C392.5 461 383.5 463 383.5 475V518.5H270.5Z" fill="#F8F8F5"/>
<path d="M236 422.5L239 496.5H352V453C352 441 361 439 365.5 439.5C378.7 439.5 409 439.5 409 434V392.5L544.5 378C561.7 376.4 562 351 544.5 351C494.333 349.5 395.9 346.5 403.5 346.5C413 346.5 418 334 418 305C420.5 226.5 338 203 284.5 203C231 203 176.5 240.5 176.5 316.5C176.5 377.3 216.167 412.5 236 422.5Z" stroke="#262A4F" stroke-width="12"/>
<path d="M261.5 316.5C261.5 298.1 275 281 277 281C279 281 294 297.206 294 316.5C294 327.5 282.5 331.5 277 331.5C270 331.5 261.5 329 261.5 316.5Z" stroke="#262A4F" stroke-width="9"/>
<path d="M318 286C318 267.6 328 258 331 258.5C334 259 342.5 270.5 342.5 286C342.5 293.5 338 298.5 331 298.5C324 298.5 318 295 318 286Z" stroke="#262A4F" stroke-width="9"/>
<path d="M297 372C297 353.6 308 341 310 341C312 341 321.5 356.5 321.5 372C321.5 379.5 317 384.5 310 384.5C303 384.5 297 381 297 372Z" stroke="#262A4F" stroke-width="9"/>
<path d="M374 336C374 339.866 370.866 343 367 343C363.134 343 360 339.866 360 336C360 332.134 363.134 329 367 329C370.866 329 374 332.134 374 336Z" fill="#262A4F"/>
<path fill-rule="evenodd" clip-rule="evenodd" d="M395 336C395 351.464 382.464 364 367 364C351.536 364 339 351.464 339 336C339 320.536 351.536 308 367 308C382.464 308 395 320.536 395 336ZM367 355C377.493 355 386 346.493 386 336C386 325.507 377.493 317 367 317C356.507 317 348 325.507 348 336C348 346.493 356.507 355 367 355Z" fill="#262A4F"/>
</svg>
