<svg width="694" height="694" viewBox="0 0 694 694" fill="none" xmlns="http://www.w3.org/2000/svg">
<circle cx="347" cy="354" r="336" fill="#F4ECD6"/>
<path fill-rule="evenodd" clip-rule="evenodd" d="M347 628C498.326 628 621 505.326 621 354C621 202.674 498.326 80 347 80C195.674 80 73 202.674 73 354C73 505.326 195.674 628 347 628ZM347 640C504.953 640 633 511.953 633 354C633 196.047 504.953 68 347 68C189.047 68 61 196.047 61 354C61 511.953 189.047 640 347 640Z" fill="#262A4F"/>
<path fill-rule="evenodd" clip-rule="evenodd" d="M347 672C522.627 672 665 529.627 665 354C665 178.373 522.627 36 347 36C171.373 36 29 178.373 29 354C29 529.627 171.373 672 347 672ZM347 690C532.568 690 683 539.568 683 354C683 168.432 532.568 18 347 18C161.432 18 11 168.432 11 354C11 539.568 161.432 690 347 690Z" fill="#262A4F"/>
<path d="M193 359H517V551H193V359Z" fill="#F8F8F5"/>
<path fill-rule="evenodd" clip-rule="evenodd" d="M173 339H495V536H173V339ZM185 351.508V523.492H483V351.508H185Z" fill="#262A4F"/>
<rect x="323" y="366" width="14" height="141" fill="#262A4F"/>
<path d="M368.8 460.84C367.523 476.179 360.435 482.213 349.5 487.1C342.727 490.033 329.2 491.5 325.5 491.5C321.8 491.5 308.31 491.433 292.5 483.5L292.5 464C300.98 471.467 316.053 473.5 327.52 473.5C333.12 473.5 337.6 472.3 340.96 469.9C344.32 467.5 346 464.167 346 459.9C346 457.18 347.067 458.293 345.84 456.48C344.613 454.613 340.54 450.333 337.66 448.84C334.833 447.347 330.78 445.8 325.5 444.2C316.807 441.533 311.867 441.2 306.64 438C301.413 434.8 297.6 431.12 295.2 426.96C292.853 422.8 291.68 417.867 291.68 412.16C291.68 405.6 293.52 399.893 297.2 395.04C300.933 390.133 305.973 386.4 312.32 383.84C318.667 381.28 324.24 380 333.44 380C342.64 380 351.705 382.402 363.5 389.5V407.5C355.036 403.268 345.111 399.28 335.52 399.28C330.4 399.28 321.487 400.58 318.5 402.5C313.847 405.408 310.888 412.666 314.5 417C315.833 418.547 324.427 423.113 327.52 424.5C330.667 425.833 336.4 426.527 342.64 428.5C350.107 430.793 349.04 430.013 353.84 433C358.64 435.933 362.32 439.667 364.88 444.2C367.493 448.68 368.8 454.227 368.8 460.84Z" fill="#262A4F"/>
<path d="M316.79 269.529L319.978 267.303L317.843 264.054C308.229 249.421 290.897 228.728 269.978 214.12C249.126 199.56 223.808 190.47 198.932 201.069L195.459 202.549L196.736 206.102C199.035 212.499 201.025 219.271 203.056 226.183C203.521 227.766 203.989 229.356 204.462 230.951C206.98 239.427 209.666 247.986 213.091 255.741C219.952 271.274 230.174 284.41 248.91 287.206C263.133 289.329 277.42 286.75 289.369 282.798C301.323 278.843 311.222 273.419 316.79 269.529ZM321.842 176.768L323.139 176.306L323.877 175.145C329.933 165.609 333.435 156.926 334.148 149.113C334.875 141.143 332.675 134.219 327.678 128.594C322.794 123.095 315.487 119.11 306.425 116.304C297.333 113.489 286.174 111.768 273.235 111.007L269.778 110.804L269.082 114.196C264.942 134.377 267.635 153.412 276.845 165.877C281.494 172.168 287.79 176.742 295.54 178.775C303.263 180.802 312.127 180.228 321.842 176.768ZM348.011 282.197L347.799 284.995L350.357 286.147C387.085 302.688 417.713 294.731 440.563 276.36C463.16 258.191 478.036 229.984 484.37 205.761L485.208 202.558L482.217 201.136C445.743 183.805 413.186 188.47 389.178 205.586C365.347 222.576 350.34 251.537 348.011 282.197Z" fill="#F8F8F5" stroke="#F8F8F5" stroke-width="8"/>
<path d="M330 339V281.5M330 184V281.5M330 184C353.5 147 333.5 129 282.5 126C274.5 165 293.5 197 330 184ZM330 281.5C311.167 252.834 262 200.4 216 220C227.5 252 231.5 293.5 265 298.5C291.8 302.5 319.5 288.834 330 281.5ZM339.5 310.25C344 251 397.5 199 468 232.5C455.651 279.73 410 342 339.5 310.25Z" stroke="#262A4F" stroke-width="12"/>
</svg>
